<!DOCTYPE svg PUBLIC "-//W3C//DTD SVG 1.1//EN" "http://www.w3.org/Graphics/SVG/1.1/DTD/svg11.dtd">
<!-- Uploaded to: SVG Repo, www.svgrepo.com, Transformed by: SVG Repo Mixer Tools -->
<svg fill="#0f7c41" width="800px" height="800px" viewBox="-3.2 -3.2 38.40 38.40" data-name="Layer 1" id="Layer_1" xmlns="http://www.w3.org/2000/svg" stroke="#0f7c41">
<g id="SVGRepo_bgCarrier" stroke-width="0">
<rect x="-3.2" y="-3.2" width="38.40" height="38.40" rx="0" fill="#ffffff" strokewidth="0"/>
</g>
<g id="SVGRepo_tracerCarrier" stroke-linecap="round" stroke-linejoin="round" stroke="#CCCCCC" stroke-width="0.32"/>
<g id="SVGRepo_iconCarrier">
<title/>
<path d="M27.2,10.1H24.48V7a2.41,2.41,0,0,0-2.41-2.4H4.41A2.41,2.41,0,0,0,2,7V19.5a2.41,2.41,0,0,0,2.41,2.4H7.52v2.72a2.8,2.8,0,0,0,2.8,2.8H27.2a2.8,2.8,0,0,0,2.8-2.8V12.9A2.8,2.8,0,0,0,27.2,10.1ZM4.41,20a.54.54,0,0,1-.54-.54V7a.54.54,0,0,1,.54-.54H22.07a.54.54,0,0,1,.54.54V10.1H10.32a2.8,2.8,0,0,0-2.8,2.8V20Zm23.72,4.58a.94.94,0,0,1-.93.94H10.32a.94.94,0,0,1-.93-.94V12.9a.94.94,0,0,1,.93-.94H27.2a.94.94,0,0,1,.93.94Z"/>
<path d="M24.65,15.62H12.87a.94.94,0,0,0,0,1.87H24.65a.94.94,0,0,0,0-1.87Z"/>
<path d="M24.65,20H12.87a.93.93,0,1,0,0,1.86H24.65a.93.93,0,0,0,0-1.86Z"/>
</g>
</svg>